<svg width="22" height="22" viewBox="0 0 22 22" fill="none" xmlns="http://www.w3.org/2000/svg">
<path d="M15.5834 19.4793H6.41671C6.04087 19.4793 5.72921 19.1677 5.72921 18.7918C5.72921 18.416 6.04087 18.1043 6.41671 18.1043H15.5834C18.205 18.1043 19.4792 16.8302 19.4792 14.2085V7.79183C19.4792 5.17016 18.205 3.896 15.5834 3.896H6.41671C3.79504 3.896 2.52087 5.17016 2.52087 7.79183C2.52087 8.16766 2.20921 8.47933 1.83337 8.47933C1.45754 8.47933 1.14587 8.16766 1.14587 7.79183C1.14587 4.446 3.07087 2.521 6.41671 2.521H15.5834C18.9292 2.521 20.8542 4.446 20.8542 7.79183V14.2085C20.8542 17.5543 18.9292 19.4793 15.5834 19.4793Z" fill="#218E2E"/>
<path d="M10.9998 11.7975C10.2298 11.7975 9.45059 11.5591 8.85476 11.0733L5.98559 8.78164C5.69225 8.54331 5.63726 8.11247 5.87559 7.81914C6.11393 7.5258 6.54475 7.47081 6.83808 7.70914L9.70725 10.0008C10.4039 10.56 11.5864 10.56 12.2831 10.0008L15.1523 7.70914C15.4456 7.47081 15.8856 7.51664 16.1147 7.81914C16.3531 8.11247 16.3072 8.55247 16.0047 8.78164L13.1356 11.0733C12.5489 11.5591 11.7698 11.7975 10.9998 11.7975Z" fill="#218E2E"/>
<path d="M7.33337 15.8125H1.83337C1.45754 15.8125 1.14587 15.5008 1.14587 15.125C1.14587 14.7492 1.45754 14.4375 1.83337 14.4375H7.33337C7.70921 14.4375 8.02087 14.7492 8.02087 15.125C8.02087 15.5008 7.70921 15.8125 7.33337 15.8125Z" fill="#218E2E"/>
<path d="M4.58337 12.146H1.83337C1.45754 12.146 1.14587 11.8343 1.14587 11.4585C1.14587 11.0827 1.45754 10.771 1.83337 10.771H4.58337C4.95921 10.771 5.27087 11.0827 5.27087 11.4585C5.27087 11.8343 4.95921 12.146 4.58337 12.146Z" fill="#218E2E"/>
</svg>
